<svg width="75" height="70" viewBox="0 0 75 70" fill="none" xmlns="http://www.w3.org/2000/svg">
<path d="M73.8067 15.8333C73.1444 14.6856 72.1959 13.7293 71.0538 13.0574C69.9117 12.3856 68.615 12.0213 67.2901 11.9999H18.2234L16.0001 3.3366C15.7754 2.50031 15.2743 1.76471 14.5782 1.24962C13.8821 0.734528 13.0322 0.470285 12.1667 0.499929H4.50008C3.48342 0.499929 2.50839 0.903797 1.78951 1.62269C1.07062 2.34158 0.666748 3.3166 0.666748 4.33326C0.666748 5.34993 1.07062 6.32495 1.78951 7.04384C2.50839 7.76273 3.48342 8.1666 4.50008 8.1666H9.25341L19.8334 47.4966C20.058 48.3329 20.5592 49.0685 21.2553 49.5836C21.9514 50.0987 22.8013 50.3629 23.6667 50.3333H58.1667C58.8746 50.3311 59.5681 50.133 60.1703 49.7609C60.7725 49.3887 61.2599 48.8571 61.5784 48.2249L74.1517 23.0783C74.6967 21.936 74.9504 20.6766 74.8902 19.4124C74.83 18.1482 74.4578 16.9186 73.8067 15.8333ZM55.7901 42.6666H26.5801L20.3317 19.6666H67.2901L55.7901 42.6666Z" fill="#8367D8"/>
<path d="M21.75 69.5C24.9256 69.5 27.5 66.9256 27.5 63.75C27.5 60.5744 24.9256 58 21.75 58C18.5744 58 16 60.5744 16 63.75C16 66.9256 18.5744 69.5 21.75 69.5Z" fill="#8367D8"/>
<path d="M60.0835 69.5C63.2591 69.5 65.8335 66.9256 65.8335 63.75C65.8335 60.5744 63.2591 58 60.0835 58C56.9079 58 54.3335 60.5744 54.3335 63.75C54.3335 66.9256 56.9079 69.5 60.0835 69.5Z" fill="#8367D8"/>
</svg>
