<svg width="24" height="25" viewBox="0 0 24 25" fill="none" xmlns="http://www.w3.org/2000/svg">
<path d="M20.2501 13.0699V12.4999V11.9224L21.6901 10.6624C21.9555 10.4285 22.1297 10.1082 22.1819 9.75824C22.234 9.40827 22.1608 9.05113 21.9751 8.74994L20.2051 5.74994C20.0735 5.52214 19.8844 5.33292 19.6567 5.20129C19.429 5.06965 19.1706 5.00021 18.9076 4.99994C18.7446 4.99869 18.5824 5.02402 18.4276 5.07494L16.6051 5.68994C16.2904 5.48084 15.9622 5.29293 15.6226 5.12744L15.2401 3.23744C15.1715 2.89214 14.9836 2.58197 14.7094 2.36122C14.4352 2.14046 14.092 2.02319 13.7401 2.02994H10.2301C9.87809 2.02319 9.53496 2.14046 9.26073 2.36122C8.9865 2.58197 8.79865 2.89214 8.73007 3.23744L8.34757 5.12744C8.00552 5.29289 7.67479 5.4808 7.35757 5.68994L5.57257 5.04494C5.41604 5.00416 5.25395 4.98896 5.09257 4.99994C4.82952 5.00021 4.57118 5.06965 4.34344 5.20129C4.1157 5.33292 3.92659 5.52214 3.79507 5.74994L2.02507 8.74994C1.85001 9.05068 1.78496 9.40293 1.84105 9.74636C1.89715 10.0898 2.07091 10.403 2.33257 10.6324L3.75007 11.9299V13.0774L2.33257 14.3374C2.06352 14.5684 1.88501 14.8873 1.82872 15.2374C1.77242 15.5875 1.84199 15.9462 2.02507 16.2499L3.79507 19.2499C3.92659 19.4777 4.1157 19.667 4.34344 19.7986C4.57118 19.9302 4.82952 19.9997 5.09257 19.9999C5.25558 20.0012 5.41771 19.9759 5.57257 19.9249L7.39507 19.3099C7.70972 19.519 8.03795 19.7069 8.37757 19.8724L8.76007 21.7624C8.82865 22.1077 9.0165 22.4179 9.29073 22.6387C9.56495 22.8594 9.90809 22.9767 10.2601 22.9699H13.8001C14.152 22.9767 14.4952 22.8594 14.7694 22.6387C15.0436 22.4179 15.2315 22.1077 15.3001 21.7624L15.6826 19.8724C16.0246 19.707 16.3553 19.5191 16.6726 19.3099L18.4876 19.9249C18.6424 19.9759 18.8046 20.0012 18.9676 19.9999C19.2306 19.9997 19.489 19.9302 19.7167 19.7986C19.9444 19.667 20.1335 19.4777 20.2651 19.2499L21.9751 16.2499C22.1501 15.9492 22.2152 15.5969 22.1591 15.2535C22.103 14.9101 21.9292 14.5968 21.6676 14.3674L20.2501 13.0699ZM18.9076 18.4999L16.3351 17.6299C15.7329 18.14 15.0446 18.5387 14.3026 18.8074L13.7701 21.4999H10.2301L9.69757 18.8374C8.96138 18.5611 8.27686 18.1631 7.67257 17.6599L5.09257 18.4999L3.32257 15.4999L5.36257 13.6999C5.22389 12.9236 5.22389 12.1288 5.36257 11.3524L3.32257 9.49994L5.09257 6.49994L7.66507 7.36994C8.26727 6.85986 8.95552 6.46113 9.69757 6.19244L10.2301 3.49994H13.7701L14.3026 6.16244C15.0388 6.43876 15.7233 6.8368 16.3276 7.33994L18.9076 6.49994L20.6776 9.49994L18.6376 11.2999C18.7762 12.0763 18.7762 12.8711 18.6376 13.6474L20.6776 15.4999L18.9076 18.4999Z" fill="black"/>
<path d="M12 17C11.11 17 10.24 16.7361 9.49994 16.2416C8.75991 15.7471 8.18314 15.0443 7.84254 14.2221C7.50195 13.3998 7.41283 12.495 7.58647 11.6221C7.7601 10.7492 8.18868 9.94736 8.81802 9.31802C9.44736 8.68868 10.2492 8.2601 11.1221 8.08647C11.995 7.91283 12.8998 8.00195 13.7221 8.34254C14.5443 8.68314 15.2471 9.25991 15.7416 9.99994C16.2361 10.74 16.5 11.61 16.5 12.5C16.506 13.0926 16.3937 13.6805 16.1697 14.2292C15.9457 14.7779 15.6145 15.2763 15.1954 15.6954C14.7763 16.1145 14.2779 16.4457 13.7292 16.6697C13.1805 16.8937 12.5926 17.006 12 17ZM12 9.5C11.6035 9.49077 11.2093 9.56205 10.8411 9.70954C10.473 9.85704 10.1386 10.0777 9.85812 10.3581C9.57768 10.6386 9.35704 10.973 9.20954 11.3411C9.06205 11.7093 8.99077 12.1035 9 12.5C8.99077 12.8965 9.06205 13.2907 9.20954 13.6589C9.35704 14.027 9.57768 14.3615 9.85812 14.6419C10.1386 14.9223 10.473 15.143 10.8411 15.2905C11.2093 15.438 11.6035 15.5092 12 15.5C12.3965 15.5092 12.7907 15.438 13.1589 15.2905C13.527 15.143 13.8615 14.9223 14.1419 14.6419C14.4223 14.3615 14.643 14.027 14.7905 13.6589C14.938 13.2907 15.0092 12.8965 15 12.5C15.0092 12.1035 14.938 11.7093 14.7905 11.3411C14.643 10.973 14.4223 10.6386 14.1419 10.3581C13.8615 10.0777 13.527 9.85704 13.1589 9.70954C12.7907 9.56205 12.3965 9.49077 12 9.5Z" fill="black"/>
</svg>
