<svg width="19" height="20" viewBox="0 0 19 20" fill="none" xmlns="http://www.w3.org/2000/svg">
<path d="M3 0.440918H16C16.7956 0.440918 17.5587 0.756989 18.1213 1.3196C18.6839 1.88221 19 2.64527 19 3.44092V16.4409C19 17.2366 18.6839 17.9996 18.1213 18.5622C17.5587 19.1248 16.7956 19.4409 16 19.4409H3C2.20435 19.4409 1.44129 19.1248 0.87868 18.5622C0.316071 17.9996 0 17.2366 0 16.4409V3.44092C0 2.64527 0.316071 1.88221 0.87868 1.3196C1.44129 0.756989 2.20435 0.440918 3 0.440918ZM3 1.44092C2.46957 1.44092 1.96086 1.65163 1.58579 2.0267C1.21071 2.40178 1 2.91049 1 3.44092V6.44092H6V1.44092H3ZM1 16.4409C1 16.9714 1.21071 17.4801 1.58579 17.8551C1.96086 18.2302 2.46957 18.4409 3 18.4409H6V13.4409H1V16.4409ZM6 7.44092H1V12.4409H6V7.44092ZM16 18.4409C16.5304 18.4409 17.0391 18.2302 17.4142 17.8551C17.7893 17.4801 18 16.9714 18 16.4409V13.4409H13V18.4409H16ZM18 7.44092H13V12.4409H18V7.44092ZM18 3.44092C18 2.91049 17.7893 2.40178 17.4142 2.0267C17.0391 1.65163 16.5304 1.44092 16 1.44092H13V6.44092H18V3.44092ZM7 1.44092V6.44092H12V1.44092H7ZM7 18.4409H12V13.4409H7V18.4409ZM12 7.44092H7V12.4409H12V7.44092Z" fill="black"/>
</svg>
