<svg width="8" height="2" viewBox="0 0 8 2" fill="none" xmlns="http://www.w3.org/2000/svg">
<path d="M4 0.940918L4.5 0.940918L7.5 0.940918C7.63261 0.940918 7.75979 0.993596 7.85355 1.08736C7.94732 1.18113 8 1.30831 8 1.44092C8 1.57353 7.94732 1.7007 7.85355 1.79447C7.75979 1.88824 7.63261 1.94092 7.5 1.94092H4.5L4 1.94092L3.5 1.94092H0.5C0.367392 1.94092 0.240215 1.88824 0.146447 1.79447C0.0526785 1.7007 0 1.57353 0 1.44092C0 1.30831 0.0526785 1.18113 0.146447 1.08736C0.240215 0.993596 0.367392 0.940918 0.5 0.940918H3.5L4 0.940918Z" fill="#252525"/>
</svg>
