<svg width="8" height="9" viewBox="0 0 8 9" fill="none" xmlns="http://www.w3.org/2000/svg">
<path d="M4 0.440918C4.13261 0.440918 4.25979 0.493596 4.35355 0.587365C4.44732 0.681133 4.5 0.80831 4.5 0.940918V3.94092H7.5C7.63261 3.94092 7.75979 3.9936 7.85355 4.08736C7.94732 4.18113 8 4.30831 8 4.44092C8 4.57353 7.94732 4.7007 7.85355 4.79447C7.75979 4.88824 7.63261 4.94092 7.5 4.94092H4.5V7.94092C4.5 8.07353 4.44732 8.2007 4.35355 8.29447C4.25979 8.38824 4.13261 8.44092 4 8.44092C3.86739 8.44092 3.74021 8.38824 3.64645 8.29447C3.55268 8.2007 3.5 8.07353 3.5 7.94092V4.94092H0.5C0.367392 4.94092 0.240215 4.88824 0.146447 4.79447C0.0526785 4.7007 0 4.57353 0 4.44092C0 4.30831 0.0526785 4.18113 0.146447 4.08736C0.240215 3.9936 0.367392 3.94092 0.5 3.94092H3.5V0.940918C3.5 0.80831 3.55268 0.681133 3.64645 0.587365C3.74021 0.493596 3.86739 0.440918 4 0.440918Z" fill="#252525"/>
</svg>
