<svg width="24" height="25" viewBox="0 0 24 25" fill="none" xmlns="http://www.w3.org/2000/svg">
<path d="M12 0.5C5.37321 0.5 0 5.87321 0 12.5C0 19.1268 5.37321 24.5 12 24.5C18.6268 24.5 24 19.1268 24 12.5C24 5.87321 18.6268 0.5 12 0.5ZM12.9777 15.4679C11.8018 17.1232 9.43929 17.6054 7.59643 16.8955C5.74821 16.1911 4.43571 14.2384 4.59375 12.2482C4.63393 9.81339 6.87589 7.67857 9.31071 7.76161C10.4786 7.70804 11.5768 8.21429 12.4714 8.92946C12.0884 9.36339 11.6946 9.78125 11.2714 10.1696C10.1973 9.42768 8.66786 9.21607 7.59375 10.0732C6.05625 11.1366 5.98661 13.6464 7.46518 14.7902C8.90357 16.0946 11.6223 15.4464 12.0214 13.4482C11.1214 13.4348 10.2161 13.4482 9.31607 13.4187C9.31339 12.8804 9.31071 12.3446 9.31339 11.8063C10.8188 11.8009 12.3268 11.7982 13.8348 11.8116C13.9232 13.0786 13.7545 14.4232 12.9777 15.4679ZM19.4732 13.1562C19.0232 13.1616 18.5732 13.1643 18.1232 13.167C18.1179 13.617 18.1152 14.067 18.1152 14.517H16.7679C16.7625 14.067 16.7625 13.6196 16.7598 13.1696C16.3098 13.1643 15.8598 13.1616 15.4098 13.1562V11.8143C15.8598 11.8089 16.3098 11.8063 16.7598 11.8063C16.7625 11.3563 16.7679 10.9062 16.7705 10.4563H18.1152L18.1232 11.8063C18.5732 11.8116 19.0232 11.8116 19.4732 11.8143V13.1562Z" fill="#9B9B9B"/>
</svg>
