<svg width="25" height="25" viewBox="0 0 25 25" fill="none" xmlns="http://www.w3.org/2000/svg">
<path d="M16.1504 12.4C16.1504 13.3946 15.7553 14.3484 15.052 15.0517C14.3488 15.7549 13.395 16.15 12.4004 16.15C11.4058 16.15 10.452 15.7549 9.74874 15.0517C9.04548 14.3484 8.65039 13.3946 8.65039 12.4C8.65039 12.1863 8.67289 11.9775 8.71164 11.775H7.40039V16.7713C7.40039 17.1188 7.68164 17.4 8.02914 17.4H16.7729C16.9394 17.3997 17.099 17.3333 17.2167 17.2154C17.3343 17.0975 17.4004 16.9378 17.4004 16.7713V11.775H16.0891C16.1279 11.9775 16.1504 12.1863 16.1504 12.4ZM12.4004 14.9C12.7288 14.8999 13.0539 14.8352 13.3573 14.7094C13.6606 14.5837 13.9363 14.3994 14.1684 14.1672C14.4006 13.9349 14.5847 13.6592 14.7103 13.3558C14.8359 13.0523 14.9005 12.7272 14.9004 12.3988C14.9003 12.0704 14.8355 11.7452 14.7098 11.4419C14.5841 11.1385 14.3998 10.8629 14.1675 10.6307C13.9353 10.3986 13.6596 10.2145 13.3561 10.0889C13.0527 9.96329 12.7275 9.89869 12.3991 9.89877C11.7359 9.89894 11.1 10.1626 10.6311 10.6316C10.1623 11.1007 9.89897 11.7368 9.89914 12.4C9.89931 13.0632 10.1629 13.6992 10.632 14.1681C11.1011 14.6369 11.7372 14.9002 12.4004 14.9ZM15.4004 9.77502H16.8991C16.9987 9.77503 17.0942 9.73556 17.1647 9.66527C17.2353 9.59498 17.2751 9.49959 17.2754 9.40002V7.90127C17.2754 7.80149 17.2358 7.70579 17.1652 7.63523C17.0946 7.56466 16.9989 7.52502 16.8991 7.52502H15.4004C15.3006 7.52502 15.2049 7.56466 15.1343 7.63523C15.0638 7.70579 15.0241 7.80149 15.0241 7.90127V9.40002C15.0254 9.60627 15.1941 9.77502 15.4004 9.77502ZM12.4004 0.400024C9.21779 0.400024 6.16555 1.66431 3.91511 3.91474C1.66467 6.16518 0.400391 9.21743 0.400391 12.4C0.400391 15.5826 1.66467 18.6349 3.91511 20.8853C6.16555 23.1357 9.21779 24.4 12.4004 24.4C13.9763 24.4 15.5367 24.0896 16.9926 23.4866C18.4485 22.8835 19.7714 21.9996 20.8857 20.8853C22 19.771 22.8839 18.4481 23.4869 16.9922C24.09 15.5363 24.4004 13.9759 24.4004 12.4C24.4004 10.8242 24.09 9.26373 23.4869 7.80782C22.8839 6.35192 22 5.02905 20.8857 3.91474C19.7714 2.80044 18.4485 1.91653 16.9926 1.31347C15.5367 0.710414 13.9763 0.400024 12.4004 0.400024ZM18.6504 17.2613C18.6504 18.025 18.0254 18.65 17.2616 18.65H7.53914C6.77539 18.65 6.15039 18.025 6.15039 17.2613V7.53877C6.15039 6.77502 6.77539 6.15002 7.53914 6.15002H17.2616C18.0254 6.15002 18.6504 6.77502 18.6504 7.53877V17.2613Z" fill="#9B9B9B"/>
</svg>
