<svg width="18" height="19" viewBox="0 0 18 19" fill="none" xmlns="http://www.w3.org/2000/svg">
<path d="M6.49952 0.970581C7.74308 0.970554 8.96054 1.32725 10.0075 1.99835C11.0544 2.66944 11.8868 3.62678 12.406 4.75676C12.9252 5.88674 13.1094 7.14194 12.9367 8.37344C12.7639 9.60493 12.2416 10.761 11.4315 11.7046L17.0755 17.3486L16.3685 18.0556L10.7235 12.4106C9.9274 13.0914 8.97852 13.5697 7.9577 13.8048C6.93688 14.0399 5.87437 14.0247 4.86066 13.7607C3.84694 13.4967 2.91206 12.9915 2.13563 12.2883C1.35921 11.5851 0.764237 10.7047 0.401398 9.72201C0.0385584 8.73932 -0.0814007 7.6835 0.0517373 6.64445C0.184875 5.60541 0.567165 4.61394 1.16605 3.75448C1.76493 2.89503 2.56267 2.19304 3.49131 1.70832C4.41995 1.2236 5.45199 0.970501 6.49952 0.970581ZM6.49952 1.97058C5.04083 1.97058 3.64189 2.55004 2.61044 3.58149C1.57899 4.61294 0.999525 6.01189 0.999525 7.47058C0.999525 8.92927 1.57899 10.3282 2.61044 11.3597C3.64189 12.3911 5.04083 12.9706 6.49952 12.9706C7.95822 12.9706 9.35716 12.3911 10.3886 11.3597C11.4201 10.3282 11.9995 8.92927 11.9995 7.47058C11.9995 6.01189 11.4201 4.61294 10.3886 3.58149C9.35716 2.55004 7.95822 1.97058 6.49952 1.97058Z" fill="black"/>
</svg>
