<svg width="25" height="25" viewBox="0 0 25 25" fill="none" xmlns="http://www.w3.org/2000/svg">
<path d="M12.4004 0.400024C5.77289 0.400024 0.400391 5.77252 0.400391 12.4C0.400391 19.0275 5.77289 24.4 12.4004 24.4C19.0279 24.4 24.4004 19.0275 24.4004 12.4C24.4004 5.77252 19.0279 0.400024 12.4004 0.400024ZM17.2816 10.23C17.2866 10.3325 17.2879 10.435 17.2879 10.535C17.2879 13.66 14.9116 17.2613 10.5641 17.2613C9.27951 17.2634 8.0216 16.8945 6.94164 16.1988C7.12539 16.2213 7.31414 16.23 7.50539 16.23C8.61289 16.23 9.63164 15.8538 10.4404 15.2188C9.94754 15.2091 9.46998 15.0459 9.07428 14.7519C8.67858 14.4579 8.38445 14.0478 8.23289 13.5788C8.58683 13.6461 8.95145 13.632 9.29914 13.5375C8.7642 13.4294 8.28314 13.1395 7.93753 12.7171C7.59191 12.2947 7.40302 11.7658 7.40289 11.22V11.1913C7.72164 11.3675 8.08664 11.475 8.47414 11.4875C7.97264 11.1537 7.61762 10.6409 7.4817 10.0539C7.34577 9.46702 7.4392 8.85034 7.74289 8.33002C8.33658 9.06002 9.07697 9.65721 9.9161 10.0829C10.7552 10.5086 11.6744 10.7534 12.6141 10.8013C12.4947 10.2942 12.5461 9.76178 12.7604 9.28691C12.9747 8.81203 13.3399 8.42126 13.7992 8.17535C14.2585 7.92945 14.7862 7.84218 15.3003 7.92711C15.8143 8.01205 16.2858 8.26443 16.6416 8.64502C17.1706 8.54037 17.6779 8.34634 18.1416 8.07127C17.9653 8.61894 17.5962 9.08399 17.1029 9.38002C17.5714 9.32359 18.029 9.19762 18.4604 9.00627C18.1435 9.48114 17.7443 9.89557 17.2816 10.23Z" fill="#9B9B9B"/>
</svg>
